<?xml version="1.0" standalone="no"?><!DOCTYPE svg PUBLIC "-//W3C//DTD SVG 1.1//EN" "http://www.w3.org/Graphics/SVG/1.1/DTD/svg11.dtd"><svg xmlns:xlink="http://www.w3.org/1999/xlink" version="1.1" style="font-family:'lucida grande', 'lucida sans unicode', arial, helvetica, sans-serif;font-size:12px;" xmlns="http://www.w3.org/2000/svg" width="600" height="500"><desc>Created with Highcharts 4.2.7</desc><defs><clipPath id="highcharts-67"><rect x="0" y="0" width="470" height="399"></rect></clipPath></defs><rect x="0" y="0" width="600" height="500" fill="#FFFFFF" class=" highcharts-background"></rect><g class="highcharts-grid"></g><g class="highcharts-grid"><path fill="none" d="M 64 445.5 L 534 445.5" stroke="#D8D8D8" stroke-width="1" opacity="1"></path><path fill="none" d="M 64 379.5 L 534 379.5" stroke="#D8D8D8" stroke-width="1" opacity="1"></path><path fill="none" d="M 64 312.5 L 534 312.5" stroke="#D8D8D8" stroke-width="1" opacity="1"></path><path fill="none" d="M 64 246.5 L 534 246.5" stroke="#D8D8D8" stroke-width="1" opacity="1"></path><path fill="none" d="M 64 179.5 L 534 179.5" stroke="#D8D8D8" stroke-width="1" opacity="1"></path><path fill="none" d="M 64 113.5 L 534 113.5" stroke="#D8D8D8" stroke-width="1" opacity="1"></path><path fill="none" d="M 64 45.5 L 534 45.5" stroke="#D8D8D8" stroke-width="1" opacity="1"></path></g><g class="highcharts-axis"><path fill="none" d="M 63.5 445 L 63.5 455" stroke="#C0D0E0" stroke-width="1" opacity="1"></path><path fill="none" d="M 130.5 445 L 130.5 455" stroke="#C0D0E0" stroke-width="1" opacity="1"></path><path fill="none" d="M 197.5 445 L 197.5 455" stroke="#C0D0E0" stroke-width="1" opacity="1"></path><path fill="none" d="M 264.5 445 L 264.5 455" stroke="#C0D0E0" stroke-width="1" opacity="1"></path><path fill="none" d="M 332.5 445 L 332.5 455" stroke="#C0D0E0" stroke-width="1" opacity="1"></path><path fill="none" d="M 399.5 445 L 399.5 455" stroke="#C0D0E0" stroke-width="1" opacity="1"></path><path fill="none" d="M 466.5 445 L 466.5 455" stroke="#C0D0E0" stroke-width="1" opacity="1"></path><path fill="none" d="M 534.5 445 L 534.5 455" stroke="#C0D0E0" stroke-width="1" opacity="1"></path><text x="299" text-anchor="middle" transform="translate(0,0)" class=" highcharts-xaxis-title" style="color:#707070;fill:#707070;" y="483"><tspan>Petal Length</tspan></text><path fill="none" d="M 64 445.5 L 534 445.5" stroke="#C0D0E0" stroke-width="1"></path></g><g class="highcharts-axis"><text x="24" text-anchor="middle" transform="translate(0,0) rotate(270 24 245.5)" class=" highcharts-yaxis-title" style="color:#707070;fill:#707070;" y="245.5"><tspan>Petal Width</tspan></text></g><g class="highcharts-series-group"><g class="highcharts-series highcharts-series-0" transform="translate(64,46) scale(1 1)" clip-path="url(#highcharts-67)"></g><g class="highcharts-markers highcharts-series-0" transform="translate(64,46) scale(1 1)" clip-path="none"><path fill="#7cb5ec" d="M 362 114.69999999999999 C 368.66 114.69999999999999 368.66 124.69999999999999 362 124.69999999999999 C 355.34 124.69999999999999 355.34 114.69999999999999 362 114.69999999999999 Z"></path><path fill="#7cb5ec" d="M 382 88.10000000000002 C 388.66 88.10000000000002 388.66 98.10000000000002 382 98.10000000000002 C 375.34 98.10000000000002 375.34 88.10000000000002 382 88.10000000000002 Z"></path><path fill="#7cb5ec" d="M 409 61.5 C 415.66 61.5 415.66 71.5 409 71.5 C 402.34 71.5 402.34 61.5 409 61.5 Z"></path><path fill="#7cb5ec" d="M 443 114.69999999999999 C 449.66 114.69999999999999 449.66 124.69999999999999 443 124.69999999999999 C 436.34 124.69999999999999 436.34 114.69999999999999 443 114.69999999999999 Z"></path><path fill="#7cb5ec" d="M 362 88.10000000000002 C 368.66 88.10000000000002 368.66 98.10000000000002 362 98.10000000000002 C 355.34 98.10000000000002 355.34 88.10000000000002 362 88.10000000000002 Z"></path><path fill="#7cb5ec" d="M 342 88.10000000000002 C 348.66 88.10000000000002 348.66 98.10000000000002 342 98.10000000000002 C 335.34 98.10000000000002 335.34 88.10000000000002 342 88.10000000000002 Z"></path><path fill="#7cb5ec" d="M 376 74.80000000000001 C 382.66 74.80000000000001 382.66 84.80000000000001 376 84.80000000000001 C 369.34 84.80000000000001 369.34 74.80000000000001 376 74.80000000000001 Z"></path><path fill="#7cb5ec" d="M 376 114.69999999999999 C 382.66 114.69999999999999 382.66 124.69999999999999 376 124.69999999999999 C 369.34 124.69999999999999 369.34 114.69999999999999 376 114.69999999999999 Z"></path><path fill="#7cb5ec" d="M 449 128 C 455.66 128 455.66 138 449 138 C 442.34 138 442.34 128 449 128 Z"></path><path fill="#7cb5ec" d="M 369 154.6 C 375.66 154.6 375.66 164.6 369 164.6 C 362.34 164.6 362.34 154.6 369 154.6 Z"></path><path fill="#7cb5ec" d="M 355 88.10000000000002 C 361.66 88.10000000000002 361.66 98.10000000000002 355 98.10000000000002 C 348.34 98.10000000000002 348.34 88.10000000000002 355 88.10000000000002 Z"></path><path fill="#7cb5ec" d="M 355 141.3 C 361.66 141.3 361.66 151.3 355 151.3 C 348.34 151.3 348.34 141.3 355 141.3 Z"></path><path fill="#7cb5ec" d="M 376 154.6 C 382.66 154.6 382.66 164.6 376 164.6 C 369.34 164.6 369.34 154.6 376 154.6 Z"></path><path fill="#7cb5ec" d="M 396 114.69999999999999 C 402.66 114.69999999999999 402.66 124.69999999999999 396 124.69999999999999 C 389.34 124.69999999999999 389.34 114.69999999999999 396 114.69999999999999 Z"></path><path fill="#7cb5ec" d="M 349 88.10000000000002 C 355.66 88.10000000000002 355.66 98.10000000000002 349 98.10000000000002 C 342.34 98.10000000000002 342.34 88.10000000000002 349 88.10000000000002 Z"></path><path fill="#7cb5ec" d="M 396 88.10000000000002 C 402.66 88.10000000000002 402.66 98.10000000000002 396 98.10000000000002 C 389.34 98.10000000000002 389.34 88.10000000000002 396 88.10000000000002 Z"></path><path fill="#7cb5ec" d="M 409 88.10000000000002 C 415.66 88.10000000000002 415.66 98.10000000000002 409 98.10000000000002 C 402.34 98.10000000000002 402.34 88.10000000000002 409 88.10000000000002 Z"></path><path fill="#7cb5ec" d="M 376 101.39999999999998 C 382.66 101.39999999999998 382.66 111.39999999999998 376 111.39999999999998 C 369.34 111.39999999999998 369.34 101.39999999999998 376 101.39999999999998 Z"></path><path fill="#7cb5ec" d="M 389 181.2 C 395.66 181.2 395.66 191.2 389 191.2 C 382.34 191.2 382.34 181.2 389 181.2 Z"></path><path fill="#7cb5ec" d="M 369 114.69999999999999 C 375.66 114.69999999999999 375.66 124.69999999999999 369 124.69999999999999 C 362.34 124.69999999999999 362.34 114.69999999999999 369 114.69999999999999 Z"></path><path fill="#7cb5ec" d="M 423 154.6 C 429.66 154.6 429.66 164.6 423 164.6 C 416.34 164.6 416.34 154.6 423 154.6 Z"></path><path fill="#7cb5ec" d="M 335 167.9 C 341.66 167.9 341.66 177.9 335 177.9 C 328.34 177.9 328.34 167.9 335 167.9 Z"></path><path fill="#7cb5ec" d="M 349 128 C 355.66 128 355.66 138 349 138 C 342.34 138 342.34 128 349 128 Z"></path><path fill="#7cb5ec" d="M 382 61.5 C 388.66 61.5 388.66 71.5 382 71.5 C 375.34 71.5 375.34 61.5 382 61.5 Z"></path><path fill="#7cb5ec" d="M 429 128 C 435.66 128 435.66 138 429 138 C 422.34 138 422.34 128 429 128 Z"></path><path fill="#7cb5ec" d="M 409 141.3 C 415.66 141.3 415.66 151.3 409 151.3 C 402.34 151.3 402.34 141.3 409 141.3 Z"></path><path fill="#7cb5ec" d="M 402 154.6 C 408.66 154.6 408.66 164.6 402 164.6 C 395.34 164.6 395.34 154.6 402 154.6 Z"></path><path fill="#7cb5ec" d="M 463 88.10000000000002 C 469.66 88.10000000000002 469.66 98.10000000000002 463 98.10000000000002 C 456.34 98.10000000000002 456.34 88.10000000000002 463 88.10000000000002 Z"></path><path fill="#7cb5ec" d="M 449 101.39999999999998 C 455.66 101.39999999999998 455.66 111.39999999999998 449 111.39999999999998 C 442.34 111.39999999999998 442.34 101.39999999999998 449 101.39999999999998 Z"></path><path fill="#7cb5ec" d="M 342 128 C 348.66 128 348.66 138 342 138 C 335.34 138 335.34 128 342 128 Z"></path><path fill="#7cb5ec" d="M 389 101.39999999999998 C 395.66 101.39999999999998 395.66 111.39999999999998 389 111.39999999999998 C 382.34 111.39999999999998 382.34 101.39999999999998 389 101.39999999999998 Z"></path><path fill="#7cb5ec" d="M 376 74.80000000000001 C 382.66 74.80000000000001 382.66 84.80000000000001 376 84.80000000000001 C 369.34 84.80000000000001 369.34 74.80000000000001 376 74.80000000000001 Z"></path><path fill="#7cb5ec" d="M 369 154.6 C 375.66 154.6 375.66 164.6 369 164.6 C 362.34 164.6 362.34 154.6 369 154.6 Z"></path><path fill="#7cb5ec" d="M 376 207.8 C 382.66 207.8 382.66 217.8 376 217.8 C 369.34 217.8 369.34 207.8 376 207.8 Z"></path><path fill="#7cb5ec" d="M 382 114.69999999999999 C 388.66 114.69999999999999 388.66 124.69999999999999 382 124.69999999999999 C 375.34 124.69999999999999 375.34 114.69999999999999 382 114.69999999999999 Z"></path><path fill="#7cb5ec" d="M 389 154.6 C 395.66 154.6 395.66 164.6 389 164.6 C 382.34 164.6 382.34 154.6 389 154.6 Z"></path><path fill="#7cb5ec" d="M 402 61.5 C 408.66 61.5 408.66 71.5 402 71.5 C 395.34 71.5 395.34 61.5 402 61.5 Z"></path><path fill="#7cb5ec" d="M 329 194.5 C 335.66 194.5 335.66 204.5 329 204.5 C 322.34 204.5 322.34 194.5 329 194.5 Z"></path></g><g class="highcharts-series highcharts-series-1" transform="translate(64,46) scale(1 1)" clip-path="url(#highcharts-67)"></g><g class="highcharts-markers highcharts-series-1" transform="translate(64,46) scale(1 1)" clip-path="none"><path fill="#434348" d="M 335 194.5 L 340 199.5 335 204.5 330 199.5 Z"></path><path fill="#434348" d="M 275 221.1 L 280 226.1 275 231.1 270 226.1 Z"></path><path fill="#434348" d="M 295 221.1 L 300 226.1 295 231.1 290 226.1 Z"></path><path fill="#434348" d="M 248 261 L 253 266 248 271 243 266 Z"></path><path fill="#434348" d="M 295 207.8 L 300 212.8 295 217.8 290 212.8 Z"></path><path fill="#434348" d="M 268 221.1 L 273 226.1 268 231.1 263 226.1 Z"></path><path fill="#434348" d="M 322 154.6 L 327 159.6 322 164.6 317 159.6 Z"></path><path fill="#434348" d="M 302 194.5 L 307 199.5 302 204.5 297 199.5 Z"></path><path fill="#434348" d="M 295 207.8 L 300 212.8 295 217.8 290 212.8 Z"></path><path fill="#434348" d="M 342 141.3 L 347 146.3 342 151.3 337 146.3 Z"></path><path fill="#434348" d="M 342 194.5 L 347 199.5 342 204.5 337 199.5 Z"></path><path fill="#434348" d="M 322 154.6 L 327 159.6 322 164.6 317 159.6 Z"></path><path fill="#434348" d="M 302 167.9 L 307 172.9 302 177.9 297 172.9 Z"></path><path fill="#434348" d="M 342 141.3 L 347 146.3 342 151.3 337 146.3 Z"></path><path fill="#434348" d="M 282 221.1 L 287 226.1 282 231.1 277 226.1 Z"></path><path fill="#434348" d="M 308 207.8 L 313 212.8 308 217.8 303 212.8 Z"></path><path fill="#434348" d="M 342 181.2 L 347 186.2 342 191.2 337 186.2 Z"></path><path fill="#434348" d="M 322 207.8 L 327 212.8 322 217.8 317 212.8 Z"></path><path fill="#434348" d="M 315 234.4 L 320 239.4 315 244.4 310 239.4 Z"></path><path fill="#434348" d="M 261 247.7 L 266 252.7 261 257.7 256 252.7 Z"></path><path fill="#434348" d="M 241 221.1 L 246 226.1 241 231.1 236 226.1 Z"></path><path fill="#434348" d="M 308 221.1 L 313 226.1 308 231.1 303 226.1 Z"></path><path fill="#434348" d="M 315 181.2 L 320 186.2 315 191.2 310 186.2 Z"></path><path fill="#434348" d="M 302 221.1 L 307 226.1 302 231.1 297 226.1 Z"></path><path fill="#434348" d="M 342 154.6 L 347 159.6 342 164.6 337 159.6 Z"></path><path fill="#434348" d="M 335 141.3 L 340 146.3 335 151.3 330 146.3 Z"></path><path fill="#434348" d="M 322 154.6 L 327 159.6 322 164.6 317 159.6 Z"></path><path fill="#434348" d="M 329 154.6 L 334 159.6 329 164.6 324 159.6 Z"></path><path fill="#434348" d="M 335 128 L 340 133 335 138 330 133 Z"></path><path fill="#434348" d="M 282 221.1 L 287 226.1 282 231.1 277 226.1 Z"></path><path fill="#434348" d="M 282 234.4 L 287 239.4 282 244.4 277 239.4 Z"></path><path fill="#434348" d="M 295 234.4 L 300 239.4 295 244.4 290 239.4 Z"></path><path fill="#434348" d="M 315 194.5 L 320 199.5 315 204.5 310 199.5 Z"></path><path fill="#434348" d="M 302 181.2 L 307 186.2 302 191.2 297 186.2 Z"></path><path fill="#434348" d="M 261 234.4 L 266 239.4 261 244.4 256 239.4 Z"></path><path fill="#434348" d="M 255 247.7 L 260 252.7 255 257.7 250 252.7 Z"></path><path fill="#434348" d="M 288 221.1 L 293 226.1 288 231.1 283 226.1 Z"></path><path fill="#434348" d="M 302 194.5 L 307 199.5 302 204.5 297 199.5 Z"></path><path fill="#434348" d="M 315 207.8 L 320 212.8 315 217.8 310 212.8 Z"></path><path fill="#434348" d="M 282 194.5 L 287 199.5 282 204.5 277 199.5 Z"></path><path fill="#434348" d="M 342 74.80000000000001 L 347 79.80000000000001 342 84.80000000000001 337 79.80000000000001 Z"></path><path fill="#434348" d="M 268 234.4 L 273 239.4 268 244.4 263 239.4 Z"></path><path fill="#434348" d="M 275 221.1 L 280 226.1 275 231.1 270 226.1 Z"></path><path fill="#434348" d="M 302 194.5 L 307 199.5 302 204.5 297 199.5 Z"></path><path fill="#434348" d="M 268 261 L 273 266 268 271 263 266 Z"></path><path fill="#434348" d="M 261 207.8 L 266 212.8 261 217.8 256 212.8 Z"></path><path fill="#434348" d="M 308 194.5 L 313 199.5 308 204.5 303 199.5 Z"></path><path fill="#434348" d="M 302 194.5 L 307 199.5 302 204.5 297 199.5 Z"></path><path fill="#434348" d="M 329 154.6 L 334 159.6 329 164.6 324 159.6 Z"></path><path fill="#434348" d="M 329 128 L 334 133 329 138 324 133 Z"></path><path fill="#434348" d="M 288 221.1 L 293 226.1 288 231.1 283 226.1 Z"></path><path fill="#434348" d="M 268 221.1 L 273 226.1 268 231.1 263 226.1 Z"></path><path fill="#434348" d="M 235 261 L 240 266 235 271 230 266 Z"></path><path fill="#434348" d="M 302 194.5 L 307 199.5 302 204.5 297 199.5 Z"></path><path fill="#434348" d="M 329 194.5 L 334 199.5 329 204.5 324 199.5 Z"></path><path fill="#434348" d="M 275 261 L 280 266 275 271 270 266 Z"></path><path fill="#434348" d="M 235 261 L 240 266 235 271 230 266 Z"></path><path fill="#434348" d="M 268 221.1 L 273 226.1 268 231.1 263 226.1 Z"></path><path fill="#434348" d="M 315 207.8 L 320 212.8 315 217.8 310 212.8 Z"></path></g><g class="highcharts-series highcharts-series-2" transform="translate(64,46) scale(1 1)" clip-path="url(#highcharts-67)"></g><g class="highcharts-markers highcharts-series-2" transform="translate(64,46) scale(1 1)" clip-path="none"><path fill="#90ed7d" d="M 196 247.7 L 206 247.7 206 257.7 196 257.7 Z"></path><path fill="#90ed7d" d="M 89 367.4 L 99 367.4 99 377.4 89 377.4 Z"></path><path fill="#90ed7d" d="M 95 367.4 L 105 367.4 105 377.4 95 377.4 Z"></path><path fill="#90ed7d" d="M 89 367.4 L 99 367.4 99 377.4 89 377.4 Z"></path><path fill="#90ed7d" d="M 102 314.2 L 112 314.2 112 324.2 102 324.2 Z"></path><path fill="#90ed7d" d="M 82 354.1 L 92 354.1 92 364.1 82 364.1 Z"></path><path fill="#90ed7d" d="M 95 380.7 L 105 380.7 105 390.7 95 390.7 Z"></path><path fill="#90ed7d" d="M 95 340.8 L 105 340.8 105 350.8 95 350.8 Z"></path><path fill="#90ed7d" d="M 102 367.4 L 112 367.4 112 377.4 102 377.4 Z"></path><path fill="#90ed7d" d="M 109 327.5 L 119 327.5 119 337.5 109 337.5 Z"></path><path fill="#90ed7d" d="M 68 380.7 L 78 380.7 78 390.7 68 390.7 Z"></path><path fill="#90ed7d" d="M 95 367.4 L 105 367.4 105 377.4 95 377.4 Z"></path><path fill="#90ed7d" d="M 102 367.4 L 112 367.4 112 377.4 102 377.4 Z"></path><path fill="#90ed7d" d="M 122 340.8 L 132 340.8 132 350.8 122 350.8 Z"></path><path fill="#90ed7d" d="M 82 367.4 L 92 367.4 92 377.4 82 377.4 Z"></path><path fill="#90ed7d" d="M 95 380.7 L 105 380.7 105 390.7 95 390.7 Z"></path><path fill="#90ed7d" d="M 82 367.4 L 92 367.4 92 377.4 82 377.4 Z"></path><path fill="#90ed7d" d="M 102 367.4 L 112 367.4 112 377.4 102 377.4 Z"></path><path fill="#90ed7d" d="M 102 340.8 L 112 340.8 112 350.8 102 350.8 Z"></path><path fill="#90ed7d" d="M 89 354.1 L 99 354.1 99 364.1 89 364.1 Z"></path><path fill="#90ed7d" d="M 82 340.8 L 92 340.8 92 350.8 82 350.8 Z"></path><path fill="#90ed7d" d="M 95 380.7 L 105 380.7 105 390.7 95 390.7 Z"></path><path fill="#90ed7d" d="M 89 367.4 L 99 367.4 99 377.4 89 377.4 Z"></path><path fill="#90ed7d" d="M 216 261 L 226 261 226 271 216 271 Z"></path><path fill="#90ed7d" d="M 89 354.1 L 99 354.1 99 364.1 89 364.1 Z"></path><path fill="#90ed7d" d="M 82 354.1 L 92 354.1 92 364.1 82 364.1 Z"></path><path fill="#90ed7d" d="M 95 367.4 L 105 367.4 105 377.4 95 377.4 Z"></path><path fill="#90ed7d" d="M 95 367.4 L 105 367.4 105 377.4 95 377.4 Z"></path><path fill="#90ed7d" d="M 109 367.4 L 119 367.4 119 377.4 109 377.4 Z"></path><path fill="#90ed7d" d="M 95 367.4 L 105 367.4 105 377.4 95 377.4 Z"></path><path fill="#90ed7d" d="M 82 367.4 L 92 367.4 92 377.4 82 377.4 Z"></path><path fill="#90ed7d" d="M 89 367.4 L 99 367.4 99 377.4 89 377.4 Z"></path><path fill="#90ed7d" d="M 89 367.4 L 99 367.4 99 377.4 89 377.4 Z"></path><path fill="#90ed7d" d="M 216 261 L 226 261 226 271 216 271 Z"></path><path fill="#90ed7d" d="M 82 367.4 L 92 367.4 92 377.4 82 377.4 Z"></path><path fill="#90ed7d" d="M 62 367.4 L 72 367.4 72 377.4 62 377.4 Z"></path><path fill="#90ed7d" d="M 95 354.1 L 105 354.1 105 364.1 95 364.1 Z"></path><path fill="#90ed7d" d="M 109 354.1 L 119 354.1 119 364.1 109 364.1 Z"></path><path fill="#90ed7d" d="M 95 340.8 L 105 340.8 105 350.8 95 350.8 Z"></path><path fill="#90ed7d" d="M 75 367.4 L 85 367.4 85 377.4 75 377.4 Z"></path><path fill="#90ed7d" d="M 89 380.7 L 99 380.7 99 390.7 89 390.7 Z"></path><path fill="#90ed7d" d="M 89 354.1 L 99 354.1 99 364.1 89 364.1 Z"></path><path fill="#90ed7d" d="M 109 340.8 L 119 340.8 119 350.8 109 350.8 Z"></path><path fill="#90ed7d" d="M 89 367.4 L 99 367.4 99 377.4 89 377.4 Z"></path><path fill="#90ed7d" d="M 75 367.4 L 85 367.4 85 377.4 75 377.4 Z"></path><path fill="#90ed7d" d="M 95 380.7 L 105 380.7 105 390.7 95 390.7 Z"></path><path fill="#90ed7d" d="M 89 367.4 L 99 367.4 99 377.4 89 377.4 Z"></path><path fill="#90ed7d" d="M 89 367.4 L 99 367.4 99 377.4 89 377.4 Z"></path><path fill="#90ed7d" d="M 102 367.4 L 112 367.4 112 377.4 102 377.4 Z"></path><path fill="#90ed7d" d="M 122 367.4 L 132 367.4 132 377.4 122 377.4 Z"></path><path fill="#90ed7d" d="M 95 340.8 L 105 340.8 105 350.8 95 350.8 Z"></path><path fill="#90ed7d" d="M 102 367.4 L 112 367.4 112 377.4 102 377.4 Z"></path><path fill="#90ed7d" d="M 95 367.4 L 105 367.4 105 377.4 95 377.4 Z"></path></g></g><text x="300" text-anchor="middle" class="highcharts-title" style="color:#333333;font-size:18px;fill:#333333;width:536px;" y="24"><tspan>Petal Length vs. Petal Width</tspan></text><g class="highcharts-legend" transform="translate(546,221)"><g><g><g class="highcharts-legend-item" transform="translate(8,3)"><path fill="#7cb5ec" d="M 8 6 C 14.66 6 14.66 16 8 16 C 1.3399999999999999 16 1.3399999999999999 6 8 6 Z"></path><text x="21" style="color:#333333;font-size:12px;font-weight:bold;cursor:pointer;width:100px;text-overflow:ellipsis;overflow:hidden;fill:#333333;" text-anchor="start" y="15"><tspan>2</tspan></text></g><g class="highcharts-legend-item" transform="translate(8,17)"><path fill="#434348" d="M 8 6 L 13 11 8 16 3 11 Z"></path><text x="21" y="15" style="color:#333333;font-size:12px;font-weight:bold;cursor:pointer;width:100px;text-overflow:ellipsis;overflow:hidden;fill:#333333;" text-anchor="start"><tspan>1</tspan></text></g><g class="highcharts-legend-item" transform="translate(8,31)"><path fill="#90ed7d" d="M 3 6 L 13 6 13 16 3 16 Z"></path><text x="21" y="15" style="color:#333333;font-size:12px;font-weight:bold;cursor:pointer;width:100px;text-overflow:ellipsis;overflow:hidden;fill:#333333;" text-anchor="start"><tspan>0</tspan></text></g></g></g></g><g class="highcharts-axis-labels highcharts-xaxis-labels"><text x="64" style="color:#606060;cursor:default;font-size:11px;fill:#606060;width:67.14285714285714;text-overflow:ellipsis;" text-anchor="middle" transform="translate(0,0)" y="464" opacity="1"><tspan>0</tspan></text><text x="131.14285714285714" style="color:#606060;cursor:default;font-size:11px;fill:#606060;width:67.14285714285714;text-overflow:ellipsis;" text-anchor="middle" transform="translate(0,0)" y="464" opacity="1"><tspan>1</tspan></text><text x="198.28571428571428" style="color:#606060;cursor:default;font-size:11px;fill:#606060;width:67.14285714285714;text-overflow:ellipsis;" text-anchor="middle" transform="translate(0,0)" y="464" opacity="1"><tspan>2</tspan></text><text x="265.42857142857144" style="color:#606060;cursor:default;font-size:11px;fill:#606060;width:67.14285714285714;text-overflow:ellipsis;" text-anchor="middle" transform="translate(0,0)" y="464" opacity="1"><tspan>3</tspan></text><text x="332.57142857142856" style="color:#606060;cursor:default;font-size:11px;fill:#606060;width:67.14285714285714;text-overflow:ellipsis;" text-anchor="middle" transform="translate(0,0)" y="464" opacity="1"><tspan>4</tspan></text><text x="399.71428571428567" style="color:#606060;cursor:default;font-size:11px;fill:#606060;width:67.14285714285714;text-overflow:ellipsis;" text-anchor="middle" transform="translate(0,0)" y="464" opacity="1"><tspan>5</tspan></text><text x="466.85714285714283" style="color:#606060;cursor:default;font-size:11px;fill:#606060;width:67.14285714285714;text-overflow:ellipsis;" text-anchor="middle" transform="translate(0,0)" y="464" opacity="1"><tspan>6</tspan></text><text x="534" style="color:#606060;cursor:default;font-size:11px;fill:#606060;width:67.14285714285714;text-overflow:ellipsis;" text-anchor="middle" transform="translate(0,0)" y="464" opacity="1"><tspan>7</tspan></text></g><g class="highcharts-axis-labels highcharts-yaxis-labels"><text x="49" style="color:#606060;cursor:default;font-size:11px;fill:#606060;width:188px;text-overflow:clip;" text-anchor="end" transform="translate(0,0)" y="450" opacity="1"><tspan>0</tspan></text><text x="49" style="color:#606060;cursor:default;font-size:11px;fill:#606060;width:188px;text-overflow:clip;" text-anchor="end" transform="translate(0,0)" y="383" opacity="1"><tspan>0.5</tspan></text><text x="49" style="color:#606060;cursor:default;font-size:11px;fill:#606060;width:188px;text-overflow:clip;" text-anchor="end" transform="translate(0,0)" y="317" opacity="1"><tspan>1</tspan></text><text x="49" style="color:#606060;cursor:default;font-size:11px;fill:#606060;width:188px;text-overflow:clip;" text-anchor="end" transform="translate(0,0)" y="250" opacity="1"><tspan>1.5</tspan></text><text x="49" style="color:#606060;cursor:default;font-size:11px;fill:#606060;width:188px;text-overflow:clip;" text-anchor="end" transform="translate(0,0)" y="184" opacity="1"><tspan>2</tspan></text><text x="49" style="color:#606060;cursor:default;font-size:11px;fill:#606060;width:188px;text-overflow:clip;" text-anchor="end" transform="translate(0,0)" y="117" opacity="1"><tspan>2.5</tspan></text><text x="49" style="color:#606060;cursor:default;font-size:11px;fill:#606060;width:188px;text-overflow:clip;" text-anchor="end" transform="translate(0,0)" y="51" opacity="1"><tspan>3</tspan></text></g><g class="highcharts-tooltip" display="none" style="cursor:default;padding:0;pointer-events:none;white-space:nowrap;" transform="translate(0,0)"><path fill="none" d="M 3.5 0.5 L 13.5 0.5 C 16.5 0.5 16.5 0.5 16.5 3.5 L 16.5 13.5 C 16.5 16.5 16.5 16.5 13.5 16.5 L 3.5 16.5 C 0.5 16.5 0.5 16.5 0.5 13.5 L 0.5 3.5 C 0.5 0.5 0.5 0.5 3.5 0.5"  stroke="black" stroke-opacity="0.049999999999999996" stroke-width="5" transform="translate(1, 1)"></path><path fill="none" d="M 3.5 0.5 L 13.5 0.5 C 16.5 0.5 16.5 0.5 16.5 3.5 L 16.5 13.5 C 16.5 16.5 16.5 16.5 13.5 16.5 L 3.5 16.5 C 0.5 16.5 0.5 16.5 0.5 13.5 L 0.5 3.5 C 0.5 0.5 0.5 0.5 3.5 0.5"  stroke="black" stroke-opacity="0.09999999999999999" stroke-width="3" transform="translate(1, 1)"></path><path fill="none" d="M 3.5 0.5 L 13.5 0.5 C 16.5 0.5 16.5 0.5 16.5 3.5 L 16.5 13.5 C 16.5 16.5 16.5 16.5 13.5 16.5 L 3.5 16.5 C 0.5 16.5 0.5 16.5 0.5 13.5 L 0.5 3.5 C 0.5 0.5 0.5 0.5 3.5 0.5"  stroke="black" stroke-opacity="0.15" stroke-width="1" transform="translate(1, 1)"></path><path fill="rgb(249, 249, 249)" fill-opacity=" .85" d="M 3.5 0.5 L 13.5 0.5 C 16.5 0.5 16.5 0.5 16.5 3.5 L 16.5 13.5 C 16.5 16.5 16.5 16.5 13.5 16.5 L 3.5 16.5 C 0.5 16.5 0.5 16.5 0.5 13.5 L 0.5 3.5 C 0.5 0.5 0.5 0.5 3.5 0.5"></path><text x="8" style="font-size:12px;color:#333333;fill:#333333;" y="20"></text></g></svg>